<?xml version="1.0" encoding="UTF-8" standalone="no"?>
<!DOCTYPE svg PUBLIC "-//W3C//DTD SVG 1.1//EN"
 "http://www.w3.org/Graphics/SVG/1.1/DTD/svg11.dtd">
<!-- Generated by graphviz version 2.26.3 (20100126.1600)
 -->
<!-- Title: _anonymous_0 Pages: 1 -->
<svg width="612pt" height="313pt"
 viewBox="0.00 0.00 612.00 313.00" xmlns="http://www.w3.org/2000/svg" xmlns:xlink="http://www.w3.org/1999/xlink">
<g id="graph1" class="graph" transform="scale(1 1) rotate(0) translate(4 309)">
<title>_anonymous_0</title>
<polygon fill="white" stroke="white" points="-4,5 -4,-309 609,-309 609,5 -4,5"/>
<g id="graph2" class="cluster"><title>cluster_b512d97e7c</title>
<polygon fill="lightblue" stroke="black" points="8,-8 8,-235 246,-235 246,-8 8,-8"/>
<text text-anchor="middle" x="127" y="-218.4" font-family="Roboto" font-size="14.00">User</text>
</g>
<g id="graph3" class="cluster"><title>cluster_ab74b86763</title>
<polygon fill="white" stroke="black" points="16,-26 16,-202 238,-202 238,-26 16,-26"/>
</g>
<g id="graph4" class="cluster"><title>cluster_532eaabd95</title>
<polygon fill="lightblue" stroke="black" points="358,-8 358,-297 596,-297 596,-8 358,-8"/>
<text text-anchor="middle" x="477" y="-280.4" font-family="Roboto" font-size="14.00">Test</text>
</g>
<g id="graph5" class="cluster"><title>cluster_21fa00d8f2</title>
<polygon fill="white" stroke="black" points="366,-26 366,-264 588,-264 588,-26 366,-26"/>
</g>
<!-- _b512d97e7c -->
<g id="node2" class="node"><title>_b512d97e7c</title>
</g>
<!-- struct_Label_ab74b86763 -->
<g id="node4" class="node"><title>struct_Label_ab74b86763</title>
<polygon fill="none" stroke="black" points="51.5,-160.5 51.5,-191.5 202.5,-191.5 202.5,-160.5 51.5,-160.5"/>
<polygon fill="black" stroke="black" points="53,-161 53,-190 55,-190 55,-161 53,-161"/>
<polygon fill="black" stroke="black" points="53,-190 53,-188 98,-188 98,-190 53,-190"/>
<polygon fill="black" stroke="black" points="98,-190 98,-161 96,-161 96,-190 98,-190"/>
<polygon fill="black" stroke="black" points="98,-161 98,-163 53,-163 53,-161 98,-161"/>
<text text-anchor="start" x="61.5" y="-172.7" font-family="Roboto" font-size="12.00">User</text>
</g>
<!-- struct_Elems_639e8cc20c -->
<g id="node5" class="node"><title>struct_Elems_639e8cc20c</title>
<image xlink:href="User_User_Select_User.svg" width="200px" height="40px" preserveAspectRatio="xMinYMin meet" x="27.5" y="-137.5"/>
</g>
<!-- struct_Elems_d4dc6a5f3d -->
<g id="node6" class="node"><title>struct_Elems_d4dc6a5f3d</title>
<image xlink:href="User_User_Make_Test_Record.svg" width="200px" height="40px" preserveAspectRatio="xMinYMin meet" x="27.5" y="-75.5"/>
</g>
<!-- _532eaabd95 -->
<g id="node8" class="node"><title>_532eaabd95</title>
</g>
<!-- struct_Label_21fa00d8f2 -->
<g id="node10" class="node"><title>struct_Label_21fa00d8f2</title>
<polygon fill="none" stroke="black" points="401.5,-222.5 401.5,-253.5 552.5,-253.5 552.5,-222.5 401.5,-222.5"/>
<polygon fill="black" stroke="black" points="403,-223 403,-252 405,-252 405,-223 403,-223"/>
<polygon fill="black" stroke="black" points="403,-252 403,-250 443,-250 443,-252 403,-252"/>
<polygon fill="black" stroke="black" points="443,-252 443,-223 441,-223 441,-252 443,-252"/>
<polygon fill="black" stroke="black" points="443,-223 443,-225 403,-225 403,-223 443,-223"/>
<text text-anchor="start" x="411.5" y="-234.7" font-family="Roboto" font-size="12.00">Test</text>
</g>
<!-- struct_Elems_1471a52405 -->
<g id="node11" class="node"><title>struct_Elems_1471a52405</title>
<image xlink:href="Test_Test_ID.svg" width="200px" height="40px" preserveAspectRatio="xMinYMin meet" x="377.5" y="-199.5"/>
</g>
<!-- struct_Elems_3b40d82e8e -->
<g id="node12" class="node"><title>struct_Elems_3b40d82e8e</title>
<image xlink:href="Test_Test_Re-Call_SaveTabGroup.svg" width="200px" height="40px" preserveAspectRatio="xMinYMin meet" x="377.5" y="-137.5"/>
</g>
<!-- struct_Elems_040a12bf7a -->
<g id="node13" class="node"><title>struct_Elems_040a12bf7a</title>
<image xlink:href="Test_Test_Trigger_Autosave.svg" width="200px" height="40px" preserveAspectRatio="xMinYMin meet" x="377.5" y="-75.5"/>
</g>
<!-- _b512d97e7c&#45;&gt;_532eaabd95 -->
<!-- struct_Elems_d4dc6a5f3d&#45;&gt;struct_Label_21fa00d8f2 -->
<g id="edge8" class="edge"><title>struct_Elems_d4dc6a5f3d:_d4dc6a5f3d&#45;&gt;struct_Label_21fa00d8f2</title>
<path fill="none" stroke="black" d="M212.816,-78.0011C231.577,-83.0887 246,-87 246,-87 246,-87 358,-211 358,-211 358,-211 372.511,-214.292 391.399,-218.578"/>
<polygon fill="black" stroke="black" points="390.772,-222.024 401.298,-220.824 392.321,-215.198 390.772,-222.024"/>
</g>
</g>
</svg>
